<svg height="512pt" viewBox="0 -54 512 512" width="512pt" xmlns="http://www.w3.org/2000/svg"><path d="m204.601562 346.40625h-39.257812c-4.265625 0-7.726562-3.460938-7.726562-7.726562 0-4.269532 3.460937-7.726563 7.726562-7.726563h39.257812c4.265626 0 7.722657 3.457031 7.722657 7.726563 0 4.265624-3.457031 7.726562-7.722657 7.726562zm0 0" fill="#a0ecff"/><path d="m475.578125 66.722656c-2.253906-37.226562-33.152344-66.722656-70.945313-66.722656-30.480468 0-56.472656 19.1875-66.578124 46.140625-26.246094.316406-47.429688 21.679687-47.429688 48.003906 0 26.519531 21.5 48.019531 48.019531 48.019531h135.617188c20.839843 0 37.734375-16.898437 37.734375-37.738281 0-20.398437-16.1875-37.007812-36.417969-37.703125zm0 0" fill="#a0ecff"/><path d="m512 104.425781c0 20.839844-16.898438 37.738281-37.738281 37.738281h-2.925781c2.734374-5.222656 4.285156-11.171874 4.285156-17.472656 0-20.402344-16.1875-37.011718-36.417969-37.707031-2.253906-37.226563-33.15625-66.722656-70.949219-66.722656-5.09375 0-10.0625.535156-14.851562 1.554687 12.929687-13.445312 31.101562-21.81249975 51.230468-21.81249975 37.796876 0 68.695313 29.48828175 70.949219 66.72265575 20.230469.6875 36.417969 17.300782 36.417969 37.699219zm0 0" fill="#60daff"/><path d="m252.140625 172.0625c5.707031-6.421875 9.179687-14.878906 9.179687-24.144531 0-19.660157-15.601562-35.667969-35.097656-36.335938-2.171875-35.878906-31.949218-64.300781-68.371094-64.300781-29.371093 0-54.425781 18.488281-64.160156 44.464844-23.164062.28125-42.222656 17.570312-45.273437 39.960937-26.777344.226563-48.417969 21.996094-48.417969 48.832031 0 26.972657 21.867188 48.839844 48.839844 48.839844 21.152344 0 39.160156-13.449218 45.949218-32.261718 6.820313 15.753906 22.914063 26.050781 40.605469 25.03125 9.175781 33.21875 43.128907 53.382812 76.867188 45.203124 34.40625-8.339843 55.539062-42.996093 47.195312-77.402343-1.566406-6.46875-4.066406-12.464844-7.316406-17.886719zm0 0" fill="#a0ecff"/><path d="m259.457031 189.949219c8.347657 34.414062-12.792969 69.058593-47.191406 77.402343-7.804687 1.894532-15.609375 2.265626-23.125 1.316407 18.550781-15.121094 27.84375-40.046875 21.832031-64.84375-1.570312-6.464844-4.066406-12.46875-7.320312-17.882813 5.714844-6.429687 9.1875-14.878906 9.1875-24.148437 0-19.660157-15.605469-35.660157-35.105469-36.339844-2.03125-33.628906-28.328125-60.722656-61.621094-63.980469 11.554688-8.898437 26.03125-14.1875 41.742188-14.1875 36.421875 0 66.195312 28.421875 68.367187 64.289063 19.496094.683593 35.105469 16.683593 35.105469 36.34375 0 9.269531-3.476563 17.71875-9.191406 24.148437 3.257812 5.414063 5.75 11.417969 7.320312 17.882813zm0 0" fill="#60daff"/><path d="m481.253906 306.558594c-8.617187 0-16.398437 3.546875-21.980468 9.257812-5.527344-13.257812-18.394532-22.6875-33.53125-23.207031-2.253907-37.226563-33.152344-66.722656-70.941407-66.722656-30.480469 0-56.476562 19.1875-66.578125 46.140625-22.589844.273437-41.414062 16.140625-46.226562 37.339844-3.90625-1.796876-8.25-2.808594-12.832032-2.808594-16.980468 0-30.746093 13.765625-30.746093 30.746094 0 16.980468 13.765625 30.746093 30.746093 30.746093h252.089844c16.980469 0 30.746094-13.765625 30.746094-30.746093 0-16.980469-13.765625-30.746094-30.746094-30.746094zm0 0" fill="#a0ecff"/><g fill="#60daff"><path d="m511.996094 337.308594c0 13.425781-8.601563 24.84375-20.609375 29.023437.152343-1.191406.21875-2.402343.21875-3.625 0-16.984375-13.769531-30.753906-30.753907-30.753906-8.609374 0-16.390624 3.554687-21.980468 9.257813-5.515625-13.253907-18.386719-22.683594-33.523438-23.203126-2.25-37.230468-33.152344-66.726562-70.949218-66.726562-16.507813 0-31.699219 5.632812-43.765626 15.074219 11.429688-23.929688 35.871094-40.472657 64.164063-40.472657 37.796875 0 68.6875 29.496094 70.949219 66.726563 15.136718.519531 27.996094 9.949219 33.527344 23.203125 5.585937-5.703125 13.367187-9.257812 21.980468-9.257812 16.980469 0 30.742188 13.773437 30.742188 30.753906zm0 0"/><path d="m475.824219 180.375h-84.65625c-4.265625 0-7.726563-3.460938-7.726563-7.726562 0-4.269532 3.460938-7.726563 7.726563-7.726563h84.65625c4.269531 0 7.726562 3.460937 7.726562 7.726563.003907 4.265624-3.457031 7.726562-7.726562 7.726562zm0 0"/><path d="m365.773438 404.550781h-63.601563c-4.269531 0-7.726563-3.460937-7.726563-7.726562 0-4.269531 3.457032-7.726563 7.726563-7.726563h63.601563c4.265624 0 7.722656 3.457032 7.722656 7.726563 0 4.265625-3.457032 7.726562-7.722656 7.726562zm0 0"/><path d="m272.648438 404.550781h-22.703126c-4.269531 0-7.726562-3.460937-7.726562-7.726562 0-4.269531 3.457031-7.726563 7.726562-7.726563h22.703126c4.265624 0 7.726562 3.457032 7.726562 7.726563 0 4.265625-3.460938 7.726562-7.726562 7.726562zm0 0"/><path d="m124.136719 265.542969h-.105469c-4.269531 0-7.726562-3.457031-7.726562-7.726563 0-4.265625 3.457031-7.726562 7.726562-7.726562h.105469c4.265625 0 7.726562 3.460937 7.726562 7.726562 0 4.269532-3.460937 7.726563-7.726562 7.726563zm0 0"/><path d="m272.703125 58.628906c-.023437 0-.050781 0-.074219 0l-.105468-.003906c-4.269532-.039062-7.695313-3.53125-7.65625-7.796875.042968-4.242187 3.492187-7.65625 7.726562-7.65625h.074219l.105469.003906c4.265624.039063 7.695312 3.53125 7.652343 7.796875-.039062 4.242188-3.488281 7.65625-7.722656 7.65625zm0 0"/></g><path d="m229.164062 368.050781h-121.277343c-4.265625 0-7.726563-3.457031-7.726563-7.726562 0-4.265625 3.460938-7.722657 7.726563-7.722657h121.277343c4.265626 0 7.726563 3.457032 7.726563 7.722657 0 4.269531-3.457031 7.726562-7.726563 7.726562zm0 0" fill="#a0ecff"/><path d="m312.289062 179.789062h-60.148437c-4.265625 0-7.726563-3.460937-7.726563-7.726562s3.460938-7.726562 7.726563-7.726562h60.148437c4.269532 0 7.726563 3.460937 7.726563 7.726562s-3.457031 7.726562-7.726563 7.726562zm0 0" fill="#60daff"/><path d="m284.277344 199.738281h-22.757813c-4.265625 0-7.726562-3.460937-7.726562-7.726562 0-4.269531 3.460937-7.726563 7.726562-7.726563h22.757813c4.265625 0 7.726562 3.457032 7.726562 7.726563 0 4.265625-3.460937 7.726562-7.726562 7.726562zm0 0" fill="#60daff"/><path d="m338.644531 142.164062h-112.054687c-4.269532 0-7.726563-3.460937-7.726563-7.726562s3.457031-7.726562 7.726563-7.726562h112.054687c4.269531 0 7.726563 3.460937 7.726563 7.726562s-3.457032 7.726562-7.726563 7.726562zm0 0" fill="#a0ecff"/></svg>