<?xml version="1.0"?>
<svg xmlns="http://www.w3.org/2000/svg" xmlns:xlink="http://www.w3.org/1999/xlink" xmlns:svgjs="http://svgjs.com/svgjs" version="1.1" width="512" height="512" x="0" y="0" viewBox="0 0 497.001 497.001" style="enable-background:new 0 0 512 512" xml:space="preserve" class=""><g><g xmlns="http://www.w3.org/2000/svg"><g><path d="m362.322 400.011-54.233-32.132-119.147-.284-20.655 6.256-17.085 68.969 46.795 54.181h101z" fill="#faf8f8" data-original="#faf8f8" style=""/><path d="m208.518 311.671-16.584 30.061-3.193 27.6c-1.222 10.483 1.64 21.107 8.261 29.326 8.401 10.427 23.807 21.344 51.495 21.344 27.685 0 43.091-10.914 51.492-21.34 3.429-4.255 5.849-9.156 7.217-14.348 1.274-4.839-5.118-11.659-5.709-16.718l.128-57.967z" fill="#f2d1a5" data-original="#f2d1a5" style="" class=""/><path d="m191.927 341.731 3.48-30.06 106.22-2.04 6.46 58.25 4.647 9.407-5.537 7.023-9.41-2.828c-5.741-1.271-5.156-9.233-5.8-13.642l-1.044-9.416c-.44-3.965-4.543-6.37-8.244-4.882-11.499 4.621-22.936 6.958-34.201 6.958-18.551 0-37.571-6.31-56.571-18.77z" fill="#f2bb88" data-original="#f2bb88" style="" class=""/><path d="m300.717 490.031c15.297-29.171 22.318-66.508 25.506-92.192.54-4.35-2.144-8.448-6.341-9.711l-12.685-3.817c1.28-4.84 1.64-9.93 1.05-14.99l-.16-1.44 20.58 6.19 61.44 18.48c25.37 7.63 13.986 84.567 13.986 84.567l-90.096 19.883h-16.93z" fill="#f0e9e6" data-original="#f0e9e6" style=""/><path d="m446.844 493.212c6.225 0 10.937-5.626 9.845-11.754l-11.489-36.255c-5.54-31.9-23.894-51.562-54.894-60.892l-30.128-7.789c-7.353-2.211-9.151-5.615-9.702 2.043-.14 1.95-7.538 3.534-7.734 5.787-2.378 27.268-9.212 75.401-28.745 112.65h127.09z" fill="#b3e59f" data-original="#b3e59f" style="" class=""/><path d="m342.737 384.351 32.69 9.83c31 9.33 53.71 34.94 59.25 66.84l6.41 35.98h9.91c6.23 0 10.94-5.63 9.85-11.75l-7.17-40.23c-5.54-31.9-28.25-57.51-59.25-66.84l-35.76-10.75c-7.35-2.21-14.87 2.95-15.42 10.61-.14 1.95-.31 4.06-.51 6.31z" fill="#95d6a4" data-original="#95d6a4" style="" class=""/><path d="m58.107 447.481 11.347 38.829 113.543 10.691h16.93l-3.65-6.97c-20.33-38.77-26.05-91.99-27.57-113.07-.08-1.05-.21-2.09-.42-3.11l-61.53 18.64c-25.3 7.67-44.12 28.94-48.65 54.99z" fill="#f0e9e6" data-original="#f0e9e6" style=""/><path d="m45.996 497.001c-6.225 0-10.937-5.626-9.845-11.754l7.166-40.226c5.54-31.9 28.25-57.51 59.25-66.84l35.76-10.752c7.353-2.211 14.872 2.951 15.422 10.609 1.838 25.554 8.1 78.638 29.247 118.963z" fill="#b3e59f" data-original="#b3e59f" style="" class=""/><path d="m368.707 180.914h6.696c16.016 0 29 13.028 29 29.1 0 22.168-17.909 40.138-40 40.138h-231c-22.091 0-40-17.97-40-40.138 0-16.071 12.984-29.1 29-29.1h6.696z" fill="#f2bb88" data-original="#f2bb88" style="" class=""/><path d="m368.707 180.914c0 50.91-.983 67.633-21.693 96.41-28.566 39.692-64.15 66.65-98.111 66.65s-69.546-26.958-98.111-66.65c-17.3-24.038-20.835-39.665-21.529-73.834-.137-6.736 4.579-17.138 4.579-25.522l-16.842-113.872 263 35.234z" fill="#f2d1a5" data-original="#f2d1a5" style="" class=""/><g fill="#f2bb88"><path d="m123.94 65.031-6.17 6.54c1.95-2.35 4.01-4.52 6.17-6.54z" fill="#f2bb88" data-original="#f2bb88" style="" class=""/><path d="m380 99.331-11.19 80.87c-4.83-12.31-13.85-23.8-25.29-31.28-37.69-24.63-77.33 8.86-138.02-45.05-.01 0-.02-.01-.02-.02-.89-.79-1.78-1.6-2.68-2.42-2.65-2.44-6.92-1.39-8.12 2.01-1.07 3.04-2.19 6-3.39 8.87-6.25 14.92-14.54 27.28-28.32 35.41-16.53 9.76-30.48 46.69-33.71 55.77-.13-6.74-.16-14.2-.16-22.58l-11.33-109.34 6.17-6.54z" fill="#f2bb88" data-original="#f2bb88" style="" class=""/><path d="m123.94 65.031-6.17 6.54c1.95-2.35 4.01-4.52 6.17-6.54z" fill="#f2bb88" data-original="#f2bb88" style="" class=""/></g><path d="m191.543 71.586c-1.805 5.684-2.101 18.578-4.255 23.724-6.244 14.918-14.542 27.284-28.319 35.412-18.893 11.148-29.872 50.193-29.872 50.193-24.696 0-35.696-36.895-35.696-62.214 0-59.049 36-89.307 73.362-89.022 4.566.035 9.252.619 14.009 2.024 2.598.767 5.648 4.03 8.281 5.33 2.2-2.332 4.055-6.795 6.421-8.888 21.598-19.11 49.831-28.308 79.816-28.142 12.403.068 23.085 3.668 35.742 6.902 90.947 23.237 107.214 151.279 57.214 169.309 0 0-.936-5.64-2.155-9.427-4.389-13.643-14.021-26.662-26.575-34.866-37.69-24.634-77.325 8.862-138.018-45.049-2.736-2.432-7.13-12.486-9.955-15.286z" fill="#524951" data-original="#7a6d79" style="" class=""/><path d="m368.71 180.911s-.08-1.19-.23-2.71c-.36-3.79-1.17-7.63-2.4-11.41 26.9-39.97 4.98-141.89-73.03-161.82-9.5-2.43-19.03-3.97-28.44-4.62 15.73-1.12 32.12.45 48.44 4.62 90.95 23.24 105.66 157.91 55.66 175.94z" fill="#3e383e" data-original="#685e68" style="" class=""/><g><path d="m201.5 86.871c-1.996-1.77-4.014-3.636-6.053-5.602-1.054-1.016-2.817-.58-3.277.81-1.517 4.587-3.118 9.01-4.881 13.232l-6.52-63.6c1.987.581 3.985 1.307 5.99 2.198 1.141.506 2.469.221 3.344-.669 1.741-1.772 3.534-3.473 5.376-5.089z" fill="#3e383e" data-original="#685e68" style="" class=""/></g></g><path d="m248.647 276.626h-.294c-7.456 0-13.5 6.044-13.5 13.5v13.827c0 1.657 1.343 3 3 3h21.294c1.657 0 3-1.343 3-3v-13.827c0-7.455-6.044-13.5-13.5-13.5z" fill="#f2bb88" data-original="#f2bb88" style="" class=""/><g><g><path d="m435 332.501c-4.142 0-7.5-3.357-7.5-7.5v-113c0-4.143 3.358-7.5 7.5-7.5s7.5 3.357 7.5 7.5v113c0 4.142-3.358 7.5-7.5 7.5z" fill="#f0e9e6" data-original="#f0e9e6" style=""/></g><g><path d="m465 392.501c-4.142 0-7.5-3.357-7.5-7.5v-203c0-4.143 3.358-7.5 7.5-7.5s7.5 3.357 7.5 7.5v203c0 4.142-3.358 7.5-7.5 7.5z" fill="#f0e9e6" data-original="#f0e9e6" style=""/></g><g><path d="m62 332.501c-4.142 0-7.5-3.357-7.5-7.5v-113c0-4.143 3.358-7.5 7.5-7.5s7.5 3.357 7.5 7.5v113c0 4.142-3.358 7.5-7.5 7.5z" fill="#f0e9e6" data-original="#f0e9e6" style=""/></g><g><path d="m32 392.501c-4.142 0-7.5-3.357-7.5-7.5v-203c0-4.143 3.358-7.5 7.5-7.5s7.5 3.357 7.5 7.5v203c0 4.142-3.358 7.5-7.5 7.5z" fill="#f0e9e6" data-original="#f0e9e6" style=""/></g></g><g><g><path d="m248.677 258.04c-4.951 0-9.901-.795-14.608-2.383-3.925-1.324-6.033-5.58-4.708-9.505 1.325-3.924 5.582-6.034 9.504-4.708 6.261 2.114 13.164 2.135 19.438.062 3.932-1.298 8.175.835 9.475 4.769 1.299 3.933-.835 8.175-4.769 9.474-4.624 1.527-9.479 2.291-14.332 2.291z" fill="#f2bb88" data-original="#f2bb88" style="" class=""/></g><g><g><path d="m181.625 227.885c-1.919 0-3.839-.732-5.303-2.196-2.929-2.93-2.929-7.678 0-10.607l25-25c2.929-2.928 7.678-2.928 10.606 0 2.929 2.93 2.929 7.678 0 10.607l-25 25c-1.464 1.464-3.383 2.196-5.303 2.196z" fill="#524951" data-original="#7a6d79" style="" class=""/></g><g><path d="m206.625 227.885c-1.919 0-3.839-.732-5.303-2.196l-25-25c-2.929-2.93-2.929-7.678 0-10.607 2.929-2.928 7.678-2.928 10.606 0l25 25c2.929 2.93 2.929 7.678 0 10.607-1.464 1.464-3.383 2.196-5.303 2.196z" fill="#524951" data-original="#7a6d79" style="" class=""/></g><g><path d="m290.375 227.885c-1.919 0-3.839-.732-5.303-2.196-2.929-2.93-2.929-7.678 0-10.607l25-25c2.929-2.928 7.678-2.928 10.606 0 2.929 2.93 2.929 7.678 0 10.607l-25 25c-1.464 1.464-3.383 2.196-5.303 2.196z" fill="#524951" data-original="#7a6d79" style="" class=""/></g><g><path d="m315.375 227.885c-1.919 0-3.839-.732-5.303-2.196l-25-25c-2.929-2.93-2.929-7.678 0-10.607 2.929-2.928 7.678-2.928 10.606 0l25 25c2.929 2.93 2.929 7.678 0 10.607-1.464 1.464-3.383 2.196-5.303 2.196z" fill="#524951" data-original="#7a6d79" style="" class=""/></g></g></g></g></g></svg>
