<svg height="511pt" viewBox="1 -35 511.99975 511" width="511pt" xmlns="http://www.w3.org/2000/svg"><g fill="#a0ecff"><path d="m7.613281 374.902344c-1.949219 0-3.898437-.746094-5.382812-2.230469-2.972657-2.972656-2.972657-7.792969 0-10.765625l134.222656-134.222656c2.972656-2.972656 7.792969-2.972656 10.765625 0s2.972656 7.792968 0 10.761718l-134.226562 134.226563c-1.484376 1.484375-3.433594 2.230469-5.378907 2.230469zm0 0"/><path d="m24.058594 324.945312c-1.945313 0-3.894532-.742187-5.378906-2.226562-2.976563-2.972656-2.976563-7.792969 0-10.765625l17.15625-17.160156c2.972656-2.96875 7.792968-2.96875 10.765624 0 2.972657 2.972656 2.972657 7.792969 0 10.765625l-17.160156 17.160156c-1.484375 1.484375-3.433594 2.226562-5.382812 2.226562zm0 0"/><path d="m57.691406 402.203125c-1.949218 0-3.898437-.742187-5.382812-2.226563-2.972656-2.972656-2.972656-7.792968 0-10.765624l17.15625-17.15625c2.972656-2.972657 7.792968-2.972657 10.765625 0 2.972656 2.972656 2.972656 7.792968 0 10.761718l-17.15625 17.160156c-1.488281 1.484376-3.433594 2.226563-5.382813 2.226563zm0 0"/><path d="m351.902344 374.902344c-1.949219 0-3.898438-.746094-5.382813-2.230469-2.972656-2.972656-2.972656-7.792969 0-10.765625l134.222657-134.222656c2.972656-2.972656 7.792968-2.972656 10.765624 0 2.972657 2.972656 2.972657 7.792968 0 10.761718l-134.222656 134.226563c-1.488281 1.484375-3.4375 2.230469-5.382812 2.230469zm0 0"/></g><path d="m255.53125 331.203125-162.386719 108.664063c-4.601562 3.082031-9.460937 1.457031-12.132812-1.894532-2.609375-3.28125-3.144531-8.210937.6875-12.042968l79.980469-79.980469h-53.171876c-8.066406 0-12.117187-9.761719-6.40625-15.46875l85.558594-85.550781h76.410156l-69.683593 69.679687h56.105469c8.957031 0 12.480468 11.609375 5.039062 16.59375zm0 0" fill="#f6cb43"/><path d="m255.53125 331.203125-162.386719 108.664063c-4.601562 3.082031-9.460937 1.457031-12.132812-1.894532l134.328125-107.355468h-53.28125c-8.074219 0-12.117188-9.761719-6.410156-15.472657l70.210937-70.21875h38.210937l-69.6875 69.683594h56.109376c8.957031 0 12.480468 11.609375 5.039062 16.59375zm0 0" fill="#fab03c"/><path d="m307.765625 358.53125c-1.945313 0-3.894531-.742188-5.382813-2.226562-2.972656-2.972657-2.972656-7.792969 0-10.765626l59.414063-59.414062c2.972656-2.972656 7.792969-2.972656 10.765625 0s2.972656 7.792969 0 10.765625l-59.414062 59.414063c-1.488282 1.484374-3.433594 2.226562-5.382813 2.226562zm0 0" fill="#a0ecff"/><path d="m263.160156 403.140625c-1.945312 0-3.894531-.746094-5.382812-2.230469-2.972656-2.972656-2.972656-7.792968 0-10.765625l19.027344-19.023437c2.972656-2.972656 7.789062-2.972656 10.761718 0s2.972656 7.789062 0 10.765625l-19.023437 19.023437c-1.484375 1.484375-3.433594 2.230469-5.382813 2.230469zm0 0" fill="#a0ecff"/><path d="m284.226562 307.789062c-1.949218 0-3.894531-.746093-5.382812-2.230468-2.972656-2.972656-2.972656-7.792969 0-10.765625l58.667969-58.664063c2.972656-2.972656 7.792969-2.972656 10.765625 0 2.96875 2.972656 2.96875 7.789063 0 10.761719l-58.667969 58.667969c-1.488281 1.484375-3.4375 2.230468-5.382813 2.230468zm0 0" fill="#a0ecff"/><path d="m444.785156 123.632812c-4.15625-68.699218-61.179687-123.132812-130.925781-123.132812-56.25 0-104.222656 35.40625-122.863281 85.148438-48.441406.585937-87.53125 40.011718-87.53125 88.589843 0 48.941407 39.675781 88.617188 88.617187 88.617188h250.273438c38.460937 0 69.640625-31.179688 69.640625-69.640625 0-37.648438-29.875-68.300782-67.210938-69.582032zm0 0" fill="#6d6d6d"/><path d="m512 193.210938c0 38.460937-31.1875 69.648437-69.648438 69.648437h-5.394531c5.046875-9.640625 7.90625-20.617187 7.90625-32.25 0-37.648437-29.875-68.300781-67.210937-69.585937-4.15625-68.695313-61.179688-123.132813-130.929688-123.132813-9.40625 0-18.574218.988281-27.410156 2.871094 23.859375-24.816407 57.394531-40.257813 94.546875-40.257813 69.746094 0 126.773437 54.425782 130.929687 123.132813 37.335938 1.273437 67.210938 31.929687 67.210938 69.574219zm0 0" fill="#565656"/><path d="m410.0625 116.074219c-3.4375 0-6.554688-2.347657-7.394531-5.835938-1.210938-5.039062-2.867188-10.007812-4.925781-14.765625-1.671876-3.855468.101562-8.335937 3.960937-10.007812 3.855469-1.671875 8.335937.105468 10.007813 3.960937 2.40625 5.558594 4.34375 11.363281 5.757812 17.253907.980469 4.089843-1.535156 8.195312-5.621094 9.179687-.597656.144531-1.195312.214844-1.785156.214844zm0 0" fill="#6d6d6d"/><path d="m385.28125 70.835938c-2 0-4-.78125-5.492188-2.339844-17.429687-18.160156-40.84375-28.160156-65.929687-28.160156-4.203125 0-7.609375-3.410157-7.609375-7.613282s3.40625-7.609375 7.609375-7.609375c29.269531 0 56.585937 11.664063 76.910156 32.839844 2.914063 3.035156 2.8125 7.851563-.21875 10.761719-1.476562 1.417968-3.375 2.121094-5.269531 2.121094zm0 0" fill="#6d6d6d"/><path d="m84.378906 163.324219c2.972656-49.117188 43.738282-88.03125 93.601563-88.03125 40.214843 0 74.511719 25.316406 87.839843 60.875 34.628907.417969 62.574219 28.605469 62.574219 63.335937 0 34.988282-28.363281 63.351563-63.351562 63.351563-14.648438 0-163.875 0-178.925781 0-27.496094 0-49.789063-22.289063-49.789063-49.789063 0-26.914062 21.359375-48.824218 48.050781-49.742187zm0 0" fill="#a09d9c"/><path d="m328.398438 199.507812c0 34.6875-27.894532 62.863282-62.484376 63.335938 10.371094-11.285156 16.695313-26.320312 16.695313-42.84375 0-34.722656-27.941406-62.914062-62.582031-63.335938-13.328125-35.554687-47.621094-60.875-87.839844-60.875-4.75 0-9.417969.359376-13.984375 1.039063 16.226563-13.449219 37.050781-21.53125 59.773437-21.53125 40.21875 0 74.511719 25.308594 87.839844 60.875 34.636719.417969 62.582032 28.597656 62.582032 63.335937zm0 0" fill="#82807f"/><path d="m328.453125 403.140625c-.015625 0-.027344 0-.039063 0h-.105468c-4.203125-.023437-7.59375-3.445313-7.574219-7.648437.019531-4.191407 3.421875-7.578126 7.609375-7.578126h.039062.105469c4.203125.023438 7.59375 3.445313 7.574219 7.648438-.019531 4.191406-3.425781 7.578125-7.609375 7.578125zm0 0" fill="#a0ecff"/><path d="m419.066406 351.546875c-.011718 0-.023437 0-.035156 0h-.105469c-4.203125-.019531-7.597656-3.445313-7.578125-7.648437.019532-4.191407 3.425782-7.574219 7.613282-7.574219h.035156.105468c4.203126.019531 7.597657 3.441406 7.578126 7.644531-.023438 4.191406-3.425782 7.578125-7.613282 7.578125zm0 0" fill="#a0ecff"/><path d="m39.242188 420.9375h-.105469c-4.203125 0-7.613281-3.410156-7.613281-7.613281s3.410156-7.609375 7.613281-7.609375h.105469c4.203124 0 7.609374 3.40625 7.609374 7.609375 0 4.207031-3.40625 7.613281-7.609374 7.613281zm0 0" fill="#a0ecff"/></svg>