<svg height="512pt" viewBox="0 0 512 512" width="512pt" xmlns="http://www.w3.org/2000/svg"><path d="m512 181c0 49.5-41.5 90-91 90h-20.097656l-84.902344-74.101562-105-91.800782c1.5-58.5 48-105.097656 105-105.097656 52.800781 0 96.597656 40.300781 103.800781 91 50.398438.597656 92.199219 39.898438 92.199219 90zm0 0" fill="#a8d3d8"/><path d="m166 421c-8.289062 0-15-6.710938-15-15v-30c0-8.289062 6.710938-15 15-15s15 6.710938 15 15v30c0 8.289062-6.710938 15-15 15zm0 0" fill="#a8d3d8"/><g fill="#8ebac5"><path d="m316 421c-8.289062 0-15-6.710938-15-15v-30c0-8.289062 6.710938-15 15-15s15 6.710938 15 15v30c0 8.289062-6.710938 15-15 15zm0 0"/><path d="m466 421c-8.289062 0-15-6.710938-15-15v-30c0-8.289062 6.710938-15 15-15s15 6.710938 15 15v30c0 8.289062-6.710938 15-15 15zm0 0"/><path d="m436 512c-8.289062 0-15-6.710938-15-15v-31c0-8.289062 6.710938-15 15-15s15 6.710938 15 15v31c0 8.289062-6.710938 15-15 15zm0 0"/><path d="m376 481c-8.289062 0-15-6.710938-15-15v-30c0-8.289062 6.710938-15 15-15s15 6.710938 15 15v30c0 8.289062-6.710938 15-15 15zm0 0"/><path d="m286 512c-8.289062 0-15-6.710938-15-15v-31c0-8.289062 6.710938-15 15-15s15 6.710938 15 15v31c0 8.289062-6.710938 15-15 15zm0 0"/><path d="m226 481c-8.289062 0-15-6.710938-15-15v-30c0-8.289062 6.710938-15 15-15s15 6.710938 15 15v30c0 8.289062-6.710938 15-15 15zm0 0"/></g><path d="m136 512c-8.289062 0-15-6.710938-15-15v-31c0-8.289062 6.710938-15 15-15s15 6.710938 15 15v31c0 8.289062-6.710938 15-15 15zm0 0" fill="#a8d3d8"/><path d="m76 481c-8.289062 0-15-6.710938-15-15v-30c0-8.289062 6.710938-15 15-15s15 6.710938 15 15v30c0 8.289062-6.710938 15-15 15zm0 0" fill="#a8d3d8"/><path d="m327.101562 182.199219c-13.203124-52.800781-60.902343-91.199219-116.101562-91.199219s-102.898438 38.398438-116.101562 91.199219c-52.5 5.398437-94.898438 49.800781-94.898438 103.800781 0 57.898438 47.800781 104.699219 105.699219 105h210.300781c57.898438 0 105-47.101562 105-105 0-54-41.398438-98.402344-93.898438-103.800781zm0 0" fill="#deecf1"/><path d="m421 286c0 57.898438-47.101562 105-105 105h-105v-300c55.199219 0 102.898438 38.398438 116.101562 91.199219 52.5 5.398437 93.898438 49.800781 93.898438 103.800781zm0 0" fill="#c6e2e7"/></svg>