<svg height="512pt" viewBox="0 -60 512.00037 512" width="512pt" xmlns="http://www.w3.org/2000/svg"><path d="m407.5 257.5c-4.171875 0-8.25.398438-12.210938 1.121094 8.410157-14.964844 13.210938-32.230469 13.210938-50.621094 0-57.160156-46.339844-103.5-103.5-103.5-55.933594 0-101.496094 44.371094-103.425781 99.835938-11.640625-14.527344-29.515625-23.835938-49.574219-23.835938-35.070312 0-63.5 28.429688-63.5 63.5 0 12.210938 3.457031 23.613281 9.429688 33.296875-6.511719-2.449219-13.5625-3.796875-20.929688-3.796875-32.859375 0-59.5 26.636719-59.5 59.5 0 32.859375 26.640625 59.5 59.5 59.5.167969 0 .332031-.011719.5-.015625v.015625h330c37.28125 0 67.5-30.222656 67.5-67.5 0-37.28125-30.21875-67.5-67.5-67.5zm0 0" fill="#e7d7ff"/><g fill="#ffe164"><path d="m136.679688 21.636719c-15.640626-14.398438-35.871094-22.070313-57.007813-21.6171878l-.660156.015625c-4.304688.1289058-7.871094 3.3164058-8.480469 7.5820318-.613281 4.273437 1.925781 8.347656 6.027344 9.679687 20.144531 6.550781 33.457031 25.945313 32.378906 47.167969-1.207031 23.730468-20.742188 43.265625-44.472656 44.472656-21.214844 1.09375-40.617188-12.234375-47.167969-32.378906-1.335937-4.105469-5.402344-6.644532-9.679687-6.027344-4.265626.609375-7.449219 4.179688-7.5781255 8.472656l-.0195313.683594c-.4570312 21.105469 7.2187498 41.347656 21.6132808 56.988281 14.414063 15.664063 33.953126 24.960938 55.015626 26.183594 1.585937.09375 3.167968.136719 4.746093.136719 21.597657 0 42.417969-8.550782 57.730469-23.863282 16.433594-16.429687 25.082031-39.199218 23.734375-62.472656-1.222656-21.070312-10.519531-40.609375-26.179687-55.023437zm0 0"/><path d="m504.425781 174.042969-2.578125-.285157c-10.660156-1.179687-18.929687-9.445312-20.105468-20.105468l-.285157-2.578125v-.003907c-.480469-4.316406-4.113281-7.570312-8.457031-7.570312 0 0 0 0-.003906 0-4.339844.003906-7.976563 3.257812-8.449219 7.574219l-.289063 2.578125c-1.175781 10.660156-9.445312 18.925781-20.105468 20.105468l-2.574219.285157c-4.316406.476562-7.574219 4.109375-7.574219 8.453125-.003906 4.34375 3.25 7.980468 7.574219 8.460937l2.578125.28125c10.65625 1.179688 18.925781 9.445313 20.105469 20.109375l.28125 2.574219c.476562 4.316406 4.113281 7.574219 8.453125 7.574219h.003906c4.34375 0 7.976562-3.253906 8.457031-7.574219l.285157-2.574219c1.179687-10.664062 9.445312-18.929687 20.105468-20.109375l2.582032-.285156c4.316406-.476563 7.574218-4.113281 7.570312-8.457031 0-4.34375-3.257812-7.976563-7.574219-8.453125zm0 0"/><path d="m440.429688 78.957031c4.316406-.480469 7.574218-4.117187 7.570312-8.460937 0-4.34375-3.257812-7.976563-7.574219-8.453125l-2.578125-.285157c-10.660156-1.179687-18.929687-9.445312-20.105468-20.105468l-.285157-2.578125v-.003907c-.480469-4.316406-4.113281-7.570312-8.457031-7.570312 0 0 0 0-.003906 0-4.339844.003906-7.976563 3.257812-8.449219 7.574219l-.289063 2.578125c-1.175781 10.660156-9.445312 18.925781-20.105468 20.105468l-2.574219.285157c-4.316406.476562-7.574219 4.109375-7.574219 8.453125-.003906 4.34375 3.25 7.980468 7.574219 8.460937l2.578125.28125c10.65625 1.179688 18.925781 9.445313 20.105469 20.109375l.28125 2.574219c.476562 4.316406 4.113281 7.574219 8.453125 7.574219h.003906c4.34375 0 7.976562-3.253906 8.457031-7.574219l.285157-2.574219c1.179687-10.664062 9.445312-18.929687 20.105468-20.109375zm0 0"/></g><path d="m475 325c0 37.28125-30.21875 67.5-67.5 67.5h-30c37.28125 0 67.5-30.21875 67.5-67.5s-30.21875-67.5-67.5-67.5c-4.167969 0-8.25.398438-12.210938 1.121094 8.410157-14.960938 13.210938-32.230469 13.210938-50.621094 0-52.070312-38.449219-95.160156-88.507812-102.421875 4.898437-.707031 9.90625-1.078125 15.007812-1.078125 57.160156 0 103.5 46.339844 103.5 103.5 0 18.390625-4.800781 35.660156-13.210938 50.621094 3.960938-.722656 8.042969-1.121094 12.210938-1.121094 37.28125 0 67.5 30.21875 67.5 67.5zm0 0" fill="#c3a9ed"/></svg>