<svg id="Capa_1" enable-background="new 0 0 512 512" height="512" viewBox="0 0 512 512" width="512" xmlns="http://www.w3.org/2000/svg"><g><path d="m298.032 134.504c-24.154 0-43.535-20.724-41.792-45.225 1.431-20.112 17.362-36.563 37.42-38.616 2.823-.289 5.595-.294 8.292-.042 3.682.344 7.077-1.982 8.283-5.478 9.058-26.268 33.979-45.143 63.324-45.143 22.017 0 41.543 10.627 53.752 27.027 3.113 4.181 7.969 6.634 13.181 6.6.106-.001.212-.001.318-.001 28.143 0 50.903 23.049 50.432 51.301-.462 27.656-23.602 49.577-51.262 49.577z" fill="#daeaff"/><path d="m440.811 33.626c-.106 0-.212 0-.318.001-5.213.034-10.069-2.419-13.181-6.6-12.209-16.4-31.736-27.027-53.753-27.027-3.976 0-7.866.358-11.651 1.022 17.159 3.023 32.065 12.576 42.061 26.004 3.113 4.181 7.969 6.634 13.181 6.6.106-.001.212-.001.319-.001 28.143 0 50.903 23.049 50.432 51.301-.462 27.656-23.602 49.577-51.262 49.577h23.342c27.66 0 50.8-21.921 51.262-49.577.471-28.251-22.289-51.3-50.432-51.3z" fill="#bed8fb"/><path d="m448.549 34.216c-2.523-.388-5.107-.59-7.738-.59-.106 0-.212 0-.318.001-5.213.034-10.069-2.419-13.181-6.6-.917-1.232-1.88-2.427-2.878-3.591-24.28 9.443-41.541 33.051-41.541 60.629 0 4.204 3.408 7.611 7.611 7.611s7.612-3.408 7.612-7.611c0-27.469 22.348-49.817 49.817-49.817.208 0 .412-.015.616-.032z" fill="#cbe0fc"/><g><g><path d="m440.942 168.13h-.023c-1.239 0-2.305-.833-2.652-2.023-8.146-27.974-33.974-48.416-64.577-48.416-11.443 0-22.212 2.867-31.642 7.911-3.696 1.977-8.284.944-10.634-2.527-9.067-13.393-24.397-22.197-41.788-22.197-4.067 0-8.021.484-11.808 1.395-4.104.987-8.34-1.218-9.665-5.225-12.18-36.838-46.889-63.421-87.811-63.421-51.071 0-92.471 41.401-92.471 92.471 0 1.16.03 2.312.078 3.46.048 1.136-.325 2.25-1.024 3.146l-.072.093c-.876 1.123-2.202 1.785-3.624 1.862-44.745 2.438-80.183 39.842-79.41 85.374.782 46.028 39.073 82.603 85.108 82.603h351.013c36.961 0 67.769-29.401 68.249-66.359.487-37.554-29.807-68.147-67.247-68.147z" fill="#ecf4ff"/><path d="m440.942 168.13h-.023c-1.239 0-2.305-.833-2.652-2.023-8.146-27.974-33.974-48.416-64.577-48.416-11.443 0-22.212 2.867-31.642 7.911-3.696 1.977-8.284.944-10.634-2.527-9.067-13.393-24.397-22.197-41.788-22.197-4.067 0-8.021.484-11.808 1.395-4.104.987-8.34-1.218-9.665-5.225-12.18-36.838-46.889-63.421-87.811-63.421-51.071 0-92.471 41.401-92.471 92.471 0 1.16.03 2.312.078 3.46.048 1.136-.325 2.25-1.024 3.146l-.072.093c-.876 1.123-2.202 1.785-3.624 1.862-44.745 2.438-80.183 39.842-79.41 85.374.782 46.028 39.073 82.603 85.108 82.603h351.013c36.961 0 67.769-29.401 68.249-66.359.487-37.554-29.807-68.147-67.247-68.147z" fill="#ecf4ff"/><path d="m440.942 168.13h-.023c-1.239 0-2.305-.833-2.652-2.023-8.146-27.974-33.974-48.416-64.577-48.416-3.979 0-7.874.354-11.663 1.019 25.347 4.439 45.813 23.065 52.898 47.398.346 1.189 1.413 2.023 2.652 2.023h.023c37.439 0 67.733 30.593 67.246 68.145-.479 36.958-31.288 66.359-68.249 66.359h23.342c36.961 0 67.769-29.401 68.249-66.359.488-37.553-29.806-68.146-67.246-68.146z" fill="#daeaff"/><path d="m164.324 218.569c0 4.204 3.408 7.611 7.612 7.611s7.611-3.407 7.611-7.611c0-52.052-40.382-94.848-91.462-98.708-.137 2.062-.214 4.14-.214 6.236 0 1.16.03 2.312.078 3.46.048 1.136-.325 2.249-1.024 3.146l-.072.093c-.876 1.123-2.202 1.785-3.624 1.862-.675.037-1.34.107-2.011.159 45.884.359 83.106 37.784 83.106 83.752z" fill="#ddeafb"/><g><path d="m276.979 102.427c-3.828.521-7.592-1.645-8.827-5.38-.764-2.311-1.618-4.582-2.555-6.809-28.111 9.93-48.315 36.756-48.315 68.224 0 4.204 3.408 7.611 7.611 7.611 4.204 0 7.612-3.407 7.612-7.611 0-27.15 19.045-50.156 44.473-55.994v-.041z" fill="#ddeafb"/></g><path d="m381.302 239.187c0-4.204-3.408-7.611-7.612-7.611s-7.612 3.407-7.612 7.611c0 26.019 12.705 49.117 32.229 63.446h41.632c.815 0 1.623-.032 2.431-.06-33.884-1.257-61.068-29.199-61.068-63.386z" fill="#ddeafb"/></g></g><path d="m229.351 269.007h65.425c5.738 0 9.79 5.621 7.975 11.065l-26.249 78.748c-1.814 5.443 2.237 11.065 7.975 11.065h16.619c6.285 0 10.347 6.645 7.482 12.239l-61.515 120.107c-2.308 4.102-8.583 1.891-7.809-2.752l15.028-86.117c.898-5.143-3.061-9.852-8.281-9.852h-38.716c-5.264 0-9.233-4.782-8.263-9.956l22.067-117.691c.745-3.975 4.216-6.856 8.262-6.856z" fill="#ffe07d"/><path d="m301.095 369.885h-16.619c-5.738 0-9.789-5.621-7.975-11.065l26.249-78.748c1.814-5.443-2.237-11.065-7.975-11.065h-23.342c5.738 0 9.789 5.621 7.975 11.065l-26.249 78.748c-1.814 5.443 2.237 11.065 7.975 11.065h16.619c6.285 0 10.347 6.645 7.482 12.239l-38.683 75.529-7.299 41.827c-.774 4.643 5.502 6.854 7.809 2.752l61.515-120.107c2.865-5.595-1.197-12.24-7.482-12.24z" fill="#ffd064"/><g fill="#bed8fb"><path d="m37.432 328.648c-4.204 0-7.611 3.408-7.611 7.612v67.252c0 4.204 3.407 7.612 7.611 7.612s7.611-3.408 7.611-7.612v-67.252c.001-4.204-3.407-7.612-7.611-7.612z"/><path d="m146.716 328.648c-4.204 0-7.612 3.408-7.612 7.612v67.252c0 4.204 3.407 7.612 7.612 7.612 4.204 0 7.611-3.408 7.611-7.612v-67.252c0-4.204-3.407-7.612-7.611-7.612z"/><path d="m92.073 429.525c-4.204 0-7.612 3.408-7.612 7.612v67.252c0 4.204 3.407 7.612 7.612 7.612 4.204 0 7.611-3.408 7.611-7.612v-67.252c.001-4.204-3.407-7.612-7.611-7.612z"/><path d="m419.927 429.525c-4.204 0-7.612 3.408-7.612 7.612v67.252c0 4.204 3.407 7.612 7.612 7.612 4.204 0 7.612-3.408 7.612-7.612v-67.252c-.001-4.204-3.408-7.612-7.612-7.612z"/><path d="m365.284 328.648c-4.204 0-7.611 3.408-7.611 7.612v67.252c0 4.204 3.407 7.612 7.611 7.612s7.612-3.408 7.612-7.612v-67.252c0-4.204-3.407-7.612-7.612-7.612z"/><path d="m474.568 328.648c-4.204 0-7.612 3.408-7.612 7.612v67.252c0 4.204 3.407 7.612 7.612 7.612 4.204 0 7.612-3.408 7.612-7.612v-67.252c-.001-4.204-3.408-7.612-7.612-7.612z"/></g></g></svg>