<svg id="Layer_1" enable-background="new 0 0 512 512" height="512" viewBox="0 0 512 512" width="512" xmlns="http://www.w3.org/2000/svg"><g><circle cx="256" cy="256" fill="#fed943" r="149.125"/><g><path d="m241 0h30v80.378h-30z" fill="#fcbe2c"/></g><g><path d="m54.102 107.905h30v80.378h-30z" fill="#fcbe2c" transform="matrix(.5 -.866 .866 .5 -93.703 133.891)"/></g><g><path d="m28.913 348.906h80.378v30h-80.378z" fill="#fcbe2c" transform="matrix(.866 -.5 .5 .866 -172.696 83.306)"/></g><g><path d="m241 431.622h30v80.378h-30z" fill="#fcbe2c"/></g><g><path d="m427.898 323.717h30v80.378h-30z" fill="#fcbe2c" transform="matrix(.5 -.866 .866 .5 -93.702 565.514)"/></g><g><path d="m402.709 133.095h80.378v30h-80.378z" fill="#fcbe2c" transform="matrix(.866 -.5 .5 .866 -14.71 241.292)"/></g><g><path d="m128.161 34.866h30v51.38h-30z" fill="#fcbe2c" transform="matrix(.866 -.5 .5 .866 -11.098 79.693)"/></g><g><path d="m4.631 241h51.38v30h-51.38z" fill="#fcbe2c"/></g><g><path d="m117.471 436.444h51.38v30h-51.38z" fill="#fcbe2c" transform="matrix(.5 -.866 .866 .5 -319.381 349.7)"/></g><g><path d="m353.84 425.754h30v51.38h-30z" fill="#fcbe2c" transform="matrix(.866 -.5 .5 .866 -176.306 244.9)"/></g><g><path d="m455.989 241h51.38v30h-51.38z" fill="#fcbe2c"/></g><g><path d="m343.15 45.556h51.38v30h-51.38z" fill="#fcbe2c" transform="matrix(.5 -.866 .866 .5 131.975 349.701)"/></g><g><path d="m427.898 323.717h30v80.378h-30z" fill="#f7aa00" transform="matrix(.5 -.866 .866 .5 -93.702 565.514)"/></g><g><path d="m402.709 133.095h80.378v30h-80.378z" fill="#f7aa00" transform="matrix(.866 -.5 .5 .866 -14.71 241.292)"/></g><g><path d="m353.84 425.754h30v51.38h-30z" fill="#f7aa00" transform="matrix(.866 -.5 .5 .866 -176.306 244.9)"/></g><g><path d="m455.989 241h51.38v30h-51.38z" fill="#f7aa00"/></g><g><path d="m343.15 45.556h51.38v30h-51.38z" fill="#f7aa00" transform="matrix(.5 -.866 .866 .5 131.975 349.701)"/></g><path d="m405.125 256c0-82.228-66.897-149.125-149.125-149.125v298.25c82.228 0 149.125-66.897 149.125-149.125z" fill="#fcbe2c"/><g fill="#f7aa00"><path d="m256 0h15v80.378h-15z"/><path d="m256 431.622h15v80.378h-15z"/></g></g></svg>